# xmcd
#
# Track frame offsets: 
#        150
#        14810
#        26245
#        39685
#        54110
#        68860
#        80385
#        95760
#        109045
#        124235
#        137810
#        151435
#        165920
#        179720
#        192560
#        207410
#
# Disc length: 2960 seconds
#
# Revision: 4
# Processed by: cddbd v1.5.2PL0 Copyright (c) Steve Scherf et al.
# Submitted via: ExactAudioCopy v1.1
#
DISCID=e90b8e10
DTITLE=Glenn Miller - Kings of swing
DYEAR=1999
DGENRE=Swing
TTITLE0=Pennsylvania 6-5000
TTITLE1=Glenn Miller - Tex Beneke - Marion Hutton - The Modernaires - The
TTITLE1=woodpecker's song
TTITLE2=Glenn Miller - Paula Kelly - The Modernaires - I know why (and s
TTITLE2=o do you)
TTITLE3=Glenn Miller - The Modernaires - Don't sit under the apple tree
TTITLE3=(with anyone else but me)
TTITLE4=Glenn Miller - Marion Hutton - Tex Beneke - The Modernaires - (I'
TTITLE4=ve got a girl in) Kalamazoo
TTITLE5=Glenn Miller - Ray Eberle - Fools rush in
TTITLE6=Glenn Miller - The Modernaires - Chattanooga choo choo
TTITLE7=Glenn Miller - Paula Kelly - Ray Eberle - Tex Beneke - The Moderna
TTITLE7=ires - It happened in Sun Valley
TTITLE8=Glenn Miller - Tex Beneke - Ida! Sweet as apple cider
TTITLE9=Glenn Miller - Jack Lathrop - Beat me Daddy, eight to the bar
TTITLE10=Glenn Miller - Skip Nelson - The Modernaires - That old black m
TTITLE10=agic
TTITLE11=Glenn Miller - Ray Eberle - The nearness of you
TTITLE12=Glenn Miller - Tex Beneke - Marion Hutton - The Modernaires - Ju
TTITLE12=kebox Saturday night
TTITLE13=Glenn Miller - Ray Eberle - Bluberry Hill
TTITLE14=Glenn Miller - Dorothy Claire - The Modernaires - Perfidia
TTITLE15=Glenn Miller - Ray Eberle - My prayer
EXTD=
EXTT0=
EXTT1=
EXTT2=
EXTT3=
EXTT4=
EXTT5=
EXTT6=
EXTT7=
EXTT8=
EXTT9=
EXTT10=
EXTT11=
EXTT12=
EXTT13=
EXTT14=
EXTT15=
PLAYORDER=
